<svg id="Layer_1" enable-background="new 0 0 24 24" height="24" viewBox="0 0 24 24" width="24" xmlns="http://www.w3.org/2000/svg"><g><path d="m22.075 8.328c.001-.517.002-1.025-.001-1.534-.012-1.548-1.188-2.714-2.736-2.714-.001 0-.001 0-.002 0l-2.421.001c-1.883 0-3.766 0-5.65.003-.043.001-.058 0-.105-.048-.903-.912-1.811-1.82-2.726-2.721-.164-.16-.416-.264-.644-.266-1.427-.008-2.854-.006-4.28-.006h-.659c-1.697 0-2.838 1.138-2.84 2.83v3.208 1.954 12.151c0 .007.003.012.004.019.001.027.009.052.016.078.006.025.01.05.021.072.011.023.027.041.041.061.016.021.029.043.048.061.017.016.038.026.057.039.025.016.048.032.076.043.005.002.009.006.015.008.04.013.082.02.122.02l16.779-.001c.221 0 .4-.18.4-.4s-.18-.4-.4-.4h-16.227c.551-1.666 2.021-5.918 3.341-8.038l.074-.12c.581-.95 1.942-3.174 6.94-3.174l10.356-.023h1.341l-.315 1.189c-.248.938-.731 2.537-1.199 4.083l-.523 1.742c-.063.212.057.435.269.497.038.012.076.018.114.018.173 0 .331-.112.383-.286l.524-1.739c.469-1.552.954-3.157 1.206-4.11l.45-1.691c.032-.12.006-.248-.069-.347-.076-.099-.193-.156-.317-.156h-1.462v-.303zm-10.757.325c-5.445 0-6.971 2.493-7.622 3.557l-.071.116c-1.01 1.621-2.091 4.41-2.813 6.439v-11.684c0-.002-.001-.003-.001-.005l.001-3.203c0-1.252.782-2.029 2.039-2.029l.658-.001c1.432-.001 2.852-.002 4.364.044.912.897 1.815 1.804 2.717 2.712.193.195.406.286.67.286h.007c1.883-.004 3.766-.004 5.647-.004h2.421.002c1.113 0 1.928.807 1.936 1.919.004.506.003 1.013.002 1.527v.304z"/><path d="m23.589 17.934h-2.452l-.758-2.333c-.107-.328-.654-.328-.762 0l-.758 2.333h-2.452c-.173 0-.327.112-.381.276-.053.165.006.346.146.447l1.984 1.441-.759 2.333c-.053.165.006.346.146.447.141.104.33.104.471 0l1.984-1.442 1.984 1.442c.07.052.152.077.235.077.082 0 .165-.025.235-.077.14-.102.198-.282.146-.447l-.759-2.333 1.984-1.441c.14-.102.198-.282.146-.447-.053-.163-.208-.276-.38-.276zm-2.455 1.69c-.14.102-.198.282-.146.447l.468 1.438-1.224-.889c-.07-.052-.152-.077-.235-.077s-.165.025-.235.077l-1.224.889.468-1.438c.053-.165-.006-.346-.146-.447l-1.224-.889h1.513c.173 0 .327-.112.381-.276l.467-1.438.467 1.438c.054.164.208.276.381.276h1.513z"/></g></svg>