<svg id="Layer_1" viewBox="0 0 64 64" xmlns="http://www.w3.org/2000/svg"><path d="m49.282 17.239c-.792-.35-1.68-.203-2.311.375l-5.829 5.258v-3.044c0-1.536-1.249-2.785-2.785-2.785h-21.417c-1.536 0-2.785 1.249-2.785 2.785v14.107c0 1.536 1.249 2.785 2.785 2.785h21.417c1.536 0 2.785-1.249 2.785-2.785v-3.03l5.807 5.214c.413.396.936.603 1.471.603.281 0 .566-.057.84-.174.807-.345 1.309-1.114 1.309-2.008v-15.328c0-.869-.493-1.626-1.287-1.975zm-10.14 16.698c0 .433-.352.785-.785.785h-21.417c-.433 0-.785-.352-.785-.785v-14.107c0-.433.352-.785.785-.785h21.417c.433 0 .785.352.785.785zm9.427.605c0 .032 0 .128-.094.168-.063.028-.106 0-.166-.056l-7.167-6.436v-2.652l7.175-6.472c.019-.018.071-.065.16-.025.092.041.092.116.092.145z"/><path d="m56.367 5.718h-48.734c-3.106 0-5.633 2.527-5.633 5.633v31.002c0 3.106 2.527 5.633 5.633 5.633h5.263v9.296c0 .404.244.769.617.924.124.051.254.076.383.076.26 0 .516-.102.707-.293l10.003-10.003h31.76c3.106 0 5.633-2.527 5.633-5.633v-31.002c0-3.106-2.527-5.633-5.633-5.633zm3.633 36.635c0 2.003-1.63 3.633-3.633 3.633h-32.175c-.265 0-.52.105-.707.293l-8.589 8.589v-7.882c0-.552-.448-1-1-1h-6.263c-2.003 0-3.633-1.63-3.633-3.633v-31.002c0-2.003 1.63-3.633 3.633-3.633h48.733c2.003 0 3.633 1.63 3.633 3.633v31.002z"/></svg>