<svg fill="none" height="12" viewBox="0 0 12 12" width="12" xmlns="http://www.w3.org/2000/svg" xmlns:xlink="http://www.w3.org/1999/xlink"><clipPath id="clip0_4_9428"><path d="m0 0h12v12h-12z"/></clipPath><g clip-path="url(#clip0_4_9428)" fill="rgb(0,0,0)"><path d="m8.47487 1.37132c.39053-.390521 1.02369-.390521 1.41422 0l.70711.70711c.3905.39052.3905 1.02369 0 1.41421l-3.18199 3.18198c-.39052.39053-1.02369.39053-1.41421 0l-.35355-.35355-.70711.70711.35355.35355c.78105.78105 2.04738.78105 2.82843 0l3.18198-3.18198c.781-.78105.781-2.04738 0-2.82843l-.7071-.707103c-.78106-.781049-2.04738-.781049-2.82843 0l-1.76777 1.767763.70711.70711z"/><path d="m3.52513 10.5637c-.39053.3905-1.02369.3905-1.41422 0l-.7071-.7071c-.39053-.39052-.39053-1.02368 0-1.41421l3.18198-3.18198c.39052-.39052 1.02369-.39052 1.41421 0l.35355.35355.70711-.7071-.35355-.35356c-.78105-.78104-2.04738-.78104-2.82843 0l-3.181981 3.18198c-.7810488.78105-.7810488 2.04738 0 2.82842l.707111.7071c.78104.7811 2.04737.7811 2.82842 0l1.76777-1.76775-.70711-.70711z"/></g></svg>