<svg id="Layer_1" enable-background="new 0 0 512 512" height="512" viewBox="0 0 512 512" width="512" xmlns="http://www.w3.org/2000/svg"><g id="wrench_screwdriver_2_"><path d="m494.471 409.842-147.936-147.904 145.498-145.467c26.578-26.593 26.578-69.89-.016-96.483-12.874-12.875-29.998-19.984-48.233-19.984-18.203 0-35.328 7.109-48.218 19.984l-138.842 138.857 1.594-15.968c.453-4.406.688-8.875.688-13.391 0-34.578-13.469-67.108-37.922-91.53-24.468-24.468-56.984-37.952-91.592-37.952-11.875 0-23.625 1.625-34.922 4.812-1.5.406-2.844 1.219-3.953 2.297-3.547 3.562-3.547 9.328 0 12.89l71.796 71.812c2.938 2.938 3 9.64.188 17.937-3.484 10.312-10.922 21.625-20.921 31.844-10.14 9.921-21.734 17.531-31.906 20.999-8.188 2.766-14.922 2.672-17.844-.078l-71.905-71.92c-3.453-3.438-9.484-3.438-12.906 0-1.094 1.125-1.875 2.453-2.312 3.969-3.156 11.265-4.781 23.031-4.781 34.921 0 34.608 13.468 67.124 37.921 91.608 24.452 24.421 56.967 37.905 91.56 37.905 12.14 0 24.155-1.688 35.749-5l3.234-.938 38.828 38.843-102.717 102.718-61.765 13.75c-1.625.375-3.125 1.219-4.359 2.422-.812.812-1.453 1.766-1.906 2.828l-35.843 79.357c-1.453 3.328-.703 7.266 1.953 9.922l6.453 6.438c2.625 2.594 6.656 3.344 10.015 1.906l79.14-35.749c1.188-.531 2.141-1.141 2.953-1.969 1.203-1.203 2.031-2.703 2.391-4.375l13.766-61.718 1.188-1.188 101.529-101.546 189.732 189.763c11.266 11.25 26.297 17.5 42.344 17.531 15.969 0 30.983-6.25 42.265-17.531 11.312-11.281 17.547-26.312 17.547-42.312-.033-15.999-6.268-31.03-17.533-42.31zm-407.479 50.874-65.499 30.264.391-.844-.891.391 7.141-14.249 23.156-51.234 45.874-10.202zm321.402-427.901c18.875-18.905 51.906-18.905 70.827.016 9.438 9.422 14.641 22.016 14.641 35.391 0 13.39-5.203 25.968-14.656 35.421l-145.467 145.466-29.016-28.984 124.577-124.591c1.703-1.719 2.641-3.984 2.641-6.406 0-2.406-.938-4.688-2.641-6.375-3.438-3.421-9.375-3.437-12.812-.031l-124.592 124.56-28.999-28.984zm73.186 448.775c-7.859 7.859-18.28 12.188-29.374 12.188-11.172-.031-21.625-4.359-29.469-12.172l-249.559-249.575-5.453 2c-12.219 4.5-25.078 6.75-38.218 6.75-61.343 0-111.264-49.921-111.264-111.295v-13.828l9.781 8.703 50.921 50.921c3.484 3.469 9.765 7.625 20.046 7.625 5.078 0 10.672-1.047 16.641-3.062 12.953-4.422 26.781-13.438 38.921-25.375 11.859-12.062 20.859-25.875 25.297-38.875 7.094-20.843.203-31.921-4.547-36.655l-60.702-60.687h13.812c30.78 0 58.718 11.578 79.749 32.609 21.062 21.047 32.64 48.952 32.625 78.624 0 13.203-2.266 26.046-6.75 38.233l-2 5.484 249.559 249.512c7.828 7.844 12.156 18.297 12.188 29.469-.001 11.094-4.329 21.563-12.204 29.406z"/><path d="m446.097 436.966c-2.438 0-4.734.969-6.453 2.688s-2.656 4-2.656 6.438c0 2.406.938 4.703 2.656 6.438 3.438 3.406 9.453 3.438 12.859 0 1.75-1.734 2.688-4.031 2.688-6.438 0-2.438-.938-4.719-2.656-6.438-1.735-1.735-4.016-2.688-6.438-2.688z"/></g></svg>