<svg id="_x30_2_Spanner_2_" enable-background="new 0 0 512 512" height="512" viewBox="0 0 512 512" width="512" xmlns="http://www.w3.org/2000/svg"><g><path d="m511.9 105c-.4-8.7-5.8-16.3-13.8-19.4-7.8-3-16.3-1.4-22.3 4.3l-30.5 23.9c-13.5 9.6-31.8 8.1-43.5-3.6s-13.2-30-3.9-43.1l24.2-30.9c12.7-13.5 3.3-35.3-15.1-36.1-30.6-1.3-60.7 10.4-82.4 32.1-23.4 23.4-34.9 55.6-31.6 88.4 1.6 16.5-4.2 32.7-16 44.4l-112.1 112c-11.8 11.8-27.9 17.6-44.4 16-32.9-3.3-65.2 8.3-88.5 31.7-21.9 21.9-33.5 52.2-31.8 83.2.4 8.4 5.6 15.5 13.5 18.5 7.8 3 16.5 1.3 22.5-4.3l30.4-23.8c13.5-9.6 31.8-8.1 43.5 3.6l.1.1c11.6 11.7 13.1 29.9 3.8 43l-24 30.7c-12.7 13.6-3.2 35.3 15.1 36.1 30.6 1.3 60.6-10.3 82.2-31.9 23.3-23.3 34.8-55.5 31.6-88.4-1.6-16.4 4.2-32.6 16-44.4l112.2-112.2c11.8-11.8 28-17.6 44.5-16 32.8 3.2 65-8.3 88.3-31.6 21.6-21.7 33.3-51.7 32-82.3zm-46.8 67.5c-18.9 18.9-44.9 28.2-71.4 25.6-22.8-2.3-45.1 5.8-61.3 22l-112.3 112.2c-16.2 16.2-24.2 38.5-22 61.2 2.6 26.6-6.7 52.7-25.6 71.6-27.4 27.4-62.8 27.9-67.3 24.8.7-.7 8.1-10.2 25.5-32.5 15.5-21.8 13-51.4-5.9-70.3l-.1-.1c-18.9-18.8-48.5-21.3-70.6-5.5-.5.4-32 24.9-32.6 25.5-2-.4-3.6-38.6 25.3-67.5 18.9-18.9 45.1-28.3 71.7-25.6 22.7 2.2 45-5.8 61.2-22l112.1-112.1c16.2-16.2 24.2-38.6 22-61.3-2.6-26.6 6.7-52.7 25.6-71.6 28.6-28.6 63.7-26.2 67.4-25-.8.8 1.4-1.8-25.6 32.6-15.5 21.8-13.1 51.4 5.9 70.4 18.9 18.9 48.5 21.4 70.7 5.6.1-.1 32.6-25.4 32.7-25.5 2.5 1 2.4 39.7-25.4 67.5z"/><path d="m287.7 209.5-78.2 78.2c-4.1 4.1-4.1 10.7 0 14.8s10.7 4.1 14.8 0l78.2-78.2c4.1-4.1 4.1-10.7 0-14.8s-10.8-4.1-14.8 0z"/></g></svg>