<svg clip-rule="evenodd" fill-rule="evenodd" height="512" image-rendering="optimizeQuality" shape-rendering="geometricPrecision" text-rendering="geometricPrecision" viewBox="0 0 1561590 1889780" width="512" xmlns="http://www.w3.org/2000/svg"><g id="图层_x0020_1"><path d="m942424 968905-576397 854546c-690 1022-1419 2004-2178 2942l-238 332c-30518 42314-82148 61195-134771 62926-49274 1617-100989-12094-135718-35518-630-427-764-590-3909-2857l-4023-3086-104-79-60 79c-35449-27303-63968-73239-77014-120807-13830-50440-10913-104422 17893-144360l352-476-25-15 1553-2083 496-650-5-5 628787-816497c-65555-99530-90720-216056-77515-328167 14336-121729 73859-238359 175934-322546 77044-63541 167660-99749 260052-109734 95096-10278 192225 7312 278431 51521 20567 10507 28717 35702 18211 56269-2699 5278-6365 9738-10670 13275l10 15-294568 242933c-13141 10839-19386 28871-18855 49170 620 23856 10452 50117 29327 73006l45395 55048c18836 22834 42761 37463 66115 42627 19758 4365 38643 1632 51854-9262l294558-242933c17848-14679 44219-12109 58898 5739 3884 4723 6563 10045 8066 15586 26787 92824 25493 191297-2659 282563-27398 88801-80209 170889-157287 234460-66879 55157-144027 89708-223705 104387-71919 13250-145893 10278-216230-8349zm-645956 807628 593596-880043 64 45c10254-15219 29759-22392 48004-16286 65972 22174 136839 27284 205430 14649 66076-12173 130093-40861 185637-86667 63868-52677 107651-120752 130381-194428 16990-55078 22229-113261 15348-170468l-240988 198753c-34119 28142-78716 36123-123059 26326-40747-9009-81603-33465-112706-71170l-45395-55048c-31054-37656-47265-82426-48356-124200-1181-45330 15180-87580 49363-115772l240924-198689c-54840-17630-112974-23548-170319-17347-76657 8284-151845 38326-215753 91033-84539 69727-133863 166435-145754 267423-11960 101544 13870 207365 79688 294434l-45 35c11102 14698 11514 35543-283 50822l-647592 840919-1156 1553-15-10c-12307 17566-12367 45236-4752 73001 8473 30895 26078 60024 47478 76508l-60 79c238 174 223 124 1954 1369 1230 883-680-541 1935 1220 21053 14202 53883 22467 86171 21410 28682-943 55495-9286 69107-27646 367-610 749-1210 1151-1806z" fill="rgb(0,0,0)" fill-rule="nonzero"/></g></svg>